<svg width="71" height="49" viewBox="0 0 71 49" fill="none" xmlns="http://www.w3.org/2000/svg">
<path d="M61.0625 11.0625C61.3333 10.7917 61.6458 10.6562 62 10.6562C62.3542 10.6562 62.6667 10.7917 62.9375 11.0625C63.2083 11.3333 63.3438 11.6458 63.3438 12C63.3438 12.3542 63.2083 12.6667 62.9375 12.9375C62.6667 13.2083 62.3542 13.3438 62 13.3438C61.6458 13.3438 61.3333 13.2083 61.0625 12.9375C60.7917 12.6667 60.6562 12.3542 60.6562 12C60.6562 11.6458 60.7917 11.3333 61.0625 11.0625ZM61.0625 7.0625C61.3333 6.79167 61.6458 6.65625 62 6.65625C62.3542 6.65625 62.6667 6.79167 62.9375 7.0625C63.2083 7.33333 63.3438 7.64583 63.3438 8C63.3438 8.35417 63.2083 8.66667 62.9375 8.9375C62.6667 9.20833 62.3542 9.34375 62 9.34375C61.6458 9.34375 61.3333 9.20833 61.0625 8.9375C60.7917 8.66667 60.6562 8.35417 60.6562 8C60.6562 7.64583 60.7917 7.33333 61.0625 7.0625ZM62.9375 4.9375C62.6667 5.20833 62.3542 5.34375 62 5.34375C61.6458 5.34375 61.3333 5.20833 61.0625 4.9375C60.7917 4.66667 60.6562 4.35417 60.6562 4C60.6562 3.64583 60.7917 3.33333 61.0625 3.0625C61.3333 2.79167 61.6458 2.65625 62 2.65625C62.3542 2.65625 62.6667 2.79167 62.9375 3.0625C63.2083 3.33333 63.3438 3.64583 63.3438 4C63.3438 4.35417 63.2083 4.66667 62.9375 4.9375Z" fill="#141414"/>
</svg>
