<svg width="37" height="11" viewBox="0 0 37 11" fill="none" xmlns="http://www.w3.org/2000/svg">
<path d="M2.016 2.524V5.32H5.064V6.22H2.016V9.1H5.424V10H0.924V1.624H5.424V2.524H2.016ZM10.5083 10L8.94834 7.552L7.44834 10H6.30834L8.43234 6.736L6.30834 3.424H7.54434L9.10434 5.86L10.5923 3.424H11.7323L9.62034 6.676L11.7443 10H10.5083ZM12.4105 6.7C12.4105 6.02 12.5465 5.428 12.8185 4.924C13.0905 4.412 13.4665 4.016 13.9465 3.736C14.4345 3.456 14.9905 3.316 15.6145 3.316C16.4225 3.316 17.0865 3.512 17.6065 3.904C18.1345 4.296 18.4825 4.84 18.6505 5.536H17.4745C17.3625 5.136 17.1425 4.82 16.8145 4.588C16.4945 4.356 16.0945 4.24 15.6145 4.24C14.9905 4.24 14.4865 4.456 14.1025 4.888C13.7185 5.312 13.5265 5.916 13.5265 6.7C13.5265 7.492 13.7185 8.104 14.1025 8.536C14.4865 8.968 14.9905 9.184 15.6145 9.184C16.0945 9.184 16.4945 9.072 16.8145 8.848C17.1345 8.624 17.3545 8.304 17.4745 7.888H18.6505C18.4745 8.56 18.1225 9.1 17.5945 9.508C17.0665 9.908 16.4065 10.108 15.6145 10.108C14.9905 10.108 14.4345 9.968 13.9465 9.688C13.4665 9.408 13.0905 9.012 12.8185 8.5C12.5465 7.988 12.4105 7.388 12.4105 6.7ZM21.1996 1.12V10H20.1076V1.12H21.1996ZM28.8927 3.424V10H27.8007V9.028C27.5927 9.364 27.3007 9.628 26.9247 9.82C26.5567 10.004 26.1487 10.096 25.7007 10.096C25.1887 10.096 24.7287 9.992 24.3207 9.784C23.9127 9.568 23.5887 9.248 23.3487 8.824C23.1167 8.4 23.0007 7.884 23.0007 7.276V3.424H24.0807V7.132C24.0807 7.78 24.2447 8.28 24.5727 8.632C24.9007 8.976 25.3487 9.148 25.9167 9.148C26.5007 9.148 26.9607 8.968 27.2967 8.608C27.6327 8.248 27.8007 7.724 27.8007 7.036V3.424H28.8927ZM31.3005 2.356C31.0925 2.356 30.9165 2.284 30.7725 2.14C30.6285 1.996 30.5565 1.82 30.5565 1.612C30.5565 1.404 30.6285 1.228 30.7725 1.084C30.9165 0.94 31.0925 0.868 31.3005 0.868C31.5005 0.868 31.6685 0.94 31.8045 1.084C31.9485 1.228 32.0205 1.404 32.0205 1.612C32.0205 1.82 31.9485 1.996 31.8045 2.14C31.6685 2.284 31.5005 2.356 31.3005 2.356ZM31.8285 3.424V10H30.7365V3.424H31.8285ZM34.7816 4.492C34.9736 4.116 35.2456 3.824 35.5976 3.616C35.9576 3.408 36.3936 3.304 36.9056 3.304V4.432H36.6176C35.3936 4.432 34.7816 5.096 34.7816 6.424V10H33.6896V3.424H34.7816V4.492Z" fill="#DF0000"/>
</svg>
